<svg width="15" height="15" viewBox="0 0 15 15" fill="none" xmlns="http://www.w3.org/2000/svg">
<g clip-path="url(#clip0_97_319)">
<path d="M0.625 0.625H14.375M3.125 0.625V3.75C3.125 5.625 6.25 5.77187 6.25 7.5C6.25 9.22813 3.125 9.375 3.125 11.25V14.375M11.875 0.625V3.75C11.875 5.625 8.75 5.77187 8.75 7.5C8.75 9.22813 11.875 9.375 11.875 11.25V14.375M0.625 14.375H14.375M6.25 2.8125H8.75V3.75C8.75 4.375 7.5 5 7.5 5C7.5 5 6.25 4.375 6.25 3.75V2.8125ZM5 13.125C5 11.875 7.5 10.625 7.5 10.625C7.5 10.625 10 11.875 10 13.125V14.375H5V13.125Z" stroke="white" stroke-width="2"/>
</g>
<defs>
<clipPath id="clip0_97_319">
<rect width="15" height="15" fill="white"/>
</clipPath>
</defs>
</svg>
