<svg width="28" height="30" viewBox="0 0 28 30" fill="none" xmlns="http://www.w3.org/2000/svg">
<path d="M14 16.0668C14.6443 16.0668 15.1667 15.5229 15.1667 14.8518C15.1667 14.1808 14.6443 13.6368 14 13.6368C13.3557 13.6368 12.8333 14.1808 12.8333 14.8518C12.8333 15.5229 13.3557 16.0668 14 16.0668Z" stroke="black" stroke-width="2" stroke-linecap="round" stroke-linejoin="round"/>
<path d="M22.1667 16.0668C22.811 16.0668 23.3333 15.5229 23.3333 14.8518C23.3333 14.1808 22.811 13.6368 22.1667 13.6368C21.5223 13.6368 21 14.1808 21 14.8518C21 15.5229 21.5223 16.0668 22.1667 16.0668Z" stroke="black" stroke-width="2" stroke-linecap="round" stroke-linejoin="round"/>
<path d="M5.83334 16.0668C6.47767 16.0668 7.00001 15.5229 7.00001 14.8518C7.00001 14.1808 6.47767 13.6368 5.83334 13.6368C5.18901 13.6368 4.66667 14.1808 4.66667 14.8518C4.66667 15.5229 5.18901 16.0668 5.83334 16.0668Z" stroke="black" stroke-width="2" stroke-linecap="round" stroke-linejoin="round"/>
</svg>
